<svg width="25" height="24" viewBox="0 0 25 24" fill="none" xmlns="http://www.w3.org/2000/svg">
<path d="M23.8984 2.80078C24.1328 3.03516 24.25 3.32812 24.25 3.67969C24.25 4.03125 24.1328 4.32422 23.8984 4.55859L12.707 15.75L9.25 12.293L20.4414 1.10156C20.6758 0.867188 20.9688 0.75 21.3203 0.75C21.6719 0.75 21.9648 0.867188 22.1992 1.10156L23.8984 2.80078ZM4.09375 15.6328C4.83594 14.8906 5.71484 14.5195 6.73047 14.5195C7.74609 14.5195 8.625 14.8906 9.36719 15.6328C10.1094 16.375 10.4805 17.2539 10.4805 18.2695C10.4805 19.6367 9.99219 20.8086 9.01562 21.7852C8.03906 22.7617 6.86719 23.25 5.5 23.25C3.46875 23.25 1.80859 22.4102 0.519531 20.7305C1.10547 20.7305 1.65234 20.5156 2.16016 20.0859C2.70703 19.6172 2.98047 19.0117 2.98047 18.2695C2.98047 17.2539 3.35156 16.375 4.09375 15.6328Z" fill="#0092FF"/>
</svg>
