<svg width="26" height="24" viewBox="0 0 26 24" fill="none" xmlns="http://www.w3.org/2000/svg">
<path d="M13.1172 20.2031C14.9922 18.5234 16.3789 17.2539 17.2773 16.3945C18.1758 15.5352 19.1523 14.5195 20.207 13.3477C21.2617 12.1758 21.9844 11.1406 22.375 10.2422C22.8047 9.34375 23.0195 8.46484 23.0195 7.60547C23.0195 6.35547 22.5898 5.32031 21.7305 4.5C20.9102 3.67969 19.875 3.26953 18.625 3.26953C17.6484 3.26953 16.7305 3.54297 15.8711 4.08984C15.0508 4.63672 14.4844 5.33984 14.1719 6.19922H11.8281C11.5156 5.33984 10.9297 4.63672 10.0703 4.08984C9.25 3.54297 8.35156 3.26953 7.375 3.26953C6.125 3.26953 5.07031 3.67969 4.21094 4.5C3.39062 5.32031 2.98047 6.35547 2.98047 7.60547C2.98047 8.46484 3.17578 9.34375 3.56641 10.2422C3.99609 11.1406 4.73828 12.1758 5.79297 13.3477C6.84766 14.5195 7.82422 15.5352 8.72266 16.3945C9.62109 17.2539 11.0078 18.5234 12.8828 20.2031L13 20.3203L13.1172 20.2031ZM18.625 0.75C20.5781 0.75 22.1992 1.41406 23.4883 2.74219C24.8164 4.07031 25.4805 5.69141 25.4805 7.60547C25.4805 8.73828 25.2656 9.85156 24.8359 10.9453C24.4062 12 23.6055 13.1914 22.4336 14.5195C21.3008 15.8477 20.2656 16.9609 19.3281 17.8594C18.3906 18.7578 16.8867 20.1445 14.8164 22.0195L13 23.6602L11.1836 22.0781C8.48828 19.6562 6.53516 17.8398 5.32422 16.6289C4.15234 15.418 3.05859 13.9922 2.04297 12.3516C1.02734 10.7109 0.519531 9.12891 0.519531 7.60547C0.519531 5.69141 1.16406 4.07031 2.45312 2.74219C3.78125 1.41406 5.42188 0.75 7.375 0.75C9.64062 0.75 11.5156 1.62891 13 3.38672C14.4844 1.62891 16.3594 0.75 18.625 0.75Z" fill="#0092FF"/>
</svg>
