<svg width="10" height="12" viewBox="0 0 10 12" fill="none" xmlns="http://www.w3.org/2000/svg">
<path d="M3.96094 5.28906C4.2526 5.5625 4.59896 5.69922 5 5.69922C5.40104 5.69922 5.73828 5.5625 6.01172 5.28906C6.30339 4.9974 6.44922 4.65104 6.44922 4.25C6.44922 3.84896 6.30339 3.51172 6.01172 3.23828C5.73828 2.94661 5.40104 2.80078 5 2.80078C4.59896 2.80078 4.2526 2.94661 3.96094 3.23828C3.6875 3.51172 3.55078 3.84896 3.55078 4.25C3.55078 4.65104 3.6875 4.9974 3.96094 5.28906ZM2.10156 1.37891C2.90365 0.576823 3.86979 0.175781 5 0.175781C6.13021 0.175781 7.08724 0.576823 7.87109 1.37891C8.67318 2.16276 9.07422 3.11979 9.07422 4.25C9.07422 4.8151 8.92839 5.46224 8.63672 6.19141C8.36328 6.92057 8.02604 7.60417 7.625 8.24219C7.22396 8.88021 6.82292 9.48177 6.42188 10.0469C6.03906 10.5938 5.71094 11.0312 5.4375 11.3594L5 11.8242C4.89062 11.6966 4.74479 11.5326 4.5625 11.332C4.38021 11.1133 4.05208 10.694 3.57812 10.0742C3.10417 9.4362 2.6849 8.82552 2.32031 8.24219C1.97396 7.64062 1.65495 6.96615 1.36328 6.21875C1.07161 5.47135 0.925781 4.8151 0.925781 4.25C0.925781 3.11979 1.31771 2.16276 2.10156 1.37891Z" fill="#0092FF"/>
</svg>
