<svg width="227" height="67" viewBox="0 0 227 67" fill="none" xmlns="http://www.w3.org/2000/svg">
<path d="M0.195312 20.0065C0.195312 18.1471 0.571616 16.5313 1.32422 15.1589C2.09896 13.7644 3.17254 12.5801 4.54492 11.6061C5.93946 10.6322 7.59962 9.83531 9.52538 9.21552C11.4733 8.5736 13.6094 8.07553 15.9336 7.72136C18.2578 7.36719 20.748 7.12373 23.4043 6.9909C26.0605 6.8581 28.8052 6.79169 31.6386 6.79169C35.4902 6.79169 39.5189 6.94664 43.7247 7.25652C47.9524 7.56643 52.3573 8.13089 56.9394 8.94989C58.0019 9.17123 58.7434 9.56968 59.1641 10.1452C59.6067 10.7207 59.8283 11.3626 59.8283 12.071C59.8283 12.5137 59.7285 12.9453 59.5294 13.3659C59.3302 13.7865 59.0644 14.1739 58.7323 14.528C58.4003 14.8822 58.0129 15.1699 57.5704 15.3913C57.1275 15.5905 56.6629 15.6901 56.1758 15.6901C54.4713 15.6901 52.6894 15.6016 50.8302 15.4245C48.9927 15.2474 47.0669 15.0482 45.0527 14.8268C43.0606 14.6055 41.0019 14.3841 38.8769 14.1628C36.7519 13.9414 34.5606 13.7754 32.3027 13.6647C31.9043 16.1439 31.3952 18.8112 30.7753 21.6667C30.1556 24.5221 29.4694 27.4441 28.7169 30.4325C27.9864 33.3984 27.2116 36.3646 26.3926 39.3308C25.5957 42.2747 24.821 45.0969 24.0684 47.7977C23.3158 50.476 22.6074 52.9552 21.9434 55.2352C21.3014 57.5149 20.7702 59.4741 20.3496 61.1121C20.1725 61.8646 19.8958 62.5619 19.5195 63.2039C19.1654 63.8236 18.7559 64.3659 18.291 64.8308C17.8483 65.2955 17.3835 65.6497 16.8965 65.8933C16.4095 66.1588 15.9557 66.2917 15.5352 66.2917C14.2734 66.2917 13.2331 65.9928 12.4141 65.3952C11.595 64.7977 11.1855 63.8346 11.1855 62.5066C11.1855 62.0859 11.252 61.6212 11.3848 61.1121C11.6725 59.0976 12.0488 57.1165 12.5137 55.1686C13.0007 53.2207 13.5651 51.1954 14.207 49.0925C14.849 46.9675 15.5794 44.7207 16.3984 42.3523C17.2175 39.9836 18.125 37.3829 19.1211 34.5496C20.1172 31.6941 21.1908 28.5508 22.3418 25.1198C23.515 21.6888 24.7767 17.8705 26.127 13.6647C24.9538 13.7533 23.7585 13.8529 22.541 13.9636C21.3457 14.0742 20.1725 14.2292 19.0215 14.4284C17.8926 14.6055 16.8301 14.8379 15.834 15.1257C14.86 15.4134 13.9967 15.7787 13.2441 16.2214C12.5137 16.6641 11.9271 17.1953 11.4844 17.8151C11.0638 18.4349 10.8535 19.1654 10.8535 20.0065C10.8535 20.0508 10.8203 20.2943 10.7539 20.737C10.7096 21.1797 10.5215 21.6667 10.1895 22.1979C9.85742 22.7071 9.32617 23.183 8.59571 23.6257C7.88737 24.0462 6.86913 24.2565 5.541 24.2565C4.21288 24.2565 3.18359 24.0352 2.45312 23.5925C1.72266 23.1498 1.19141 22.6628 0.859375 22.1315C0.460938 21.5117 0.239583 20.8034 0.195312 20.0065ZM60.2929 43.5142C61.2004 42.3191 62.2187 41.0351 63.3475 39.6629C64.4766 38.2904 65.6496 37.0177 66.8671 35.8444C68.0846 34.649 69.291 33.6642 70.4864 32.8892C71.7039 32.0925 72.8438 31.6941 73.9062 31.6941C74.1717 31.6941 74.4706 31.7494 74.8027 31.8602C75.1348 31.9486 75.4447 32.1257 75.7323 32.3914C76.0423 32.6569 76.2967 33.0332 76.4962 33.5202C76.6954 33.9852 76.7948 34.5938 76.7948 35.3463C76.7948 36.8517 76.5846 38.3236 76.1641 39.7623C75.7434 41.179 75.2787 42.6067 74.7696 44.0455C74.2825 45.4622 73.8289 46.9123 73.4081 48.3952C73.0098 49.8782 72.8106 51.4277 72.8106 53.0436C72.8106 53.929 72.9435 54.6373 73.209 55.1686C73.4747 55.6998 73.8176 55.9656 74.2383 55.9656C74.7696 55.9656 75.334 55.8548 75.9315 55.6335C76.5294 55.4123 77.1269 55.1244 77.7247 54.7702C78.3223 54.416 78.9088 54.0177 79.4842 53.5748C80.06 53.1102 80.6023 52.6342 81.1114 52.1471C82.3289 51.0183 83.524 49.7342 84.6973 48.2955L85.2617 57.1276C84.8633 57.4375 84.3542 57.8248 83.7342 58.2898C83.1367 58.7545 82.4615 59.2526 81.709 59.7838C80.9785 60.293 80.1815 60.8132 79.3185 61.3444C78.4552 61.8757 77.5808 62.3517 76.6954 62.7721C75.8321 63.1705 74.9577 63.5026 74.0723 63.7683C73.209 64.0338 72.3788 64.1667 71.5821 64.1667C70.3646 64.1667 69.3021 63.8457 68.3946 63.2039C67.5091 62.5398 66.7787 61.7096 66.2033 60.7134C65.6275 59.6954 65.196 58.5884 64.9081 57.3933C64.6206 56.1979 64.4766 55.0691 64.4766 54.0066C64.4766 53.2983 64.565 52.5123 64.7421 51.649C64.9413 50.7636 65.1739 49.8782 65.4394 48.9928C65.7273 48.1074 66.0372 47.244 66.369 46.4031C66.7232 45.5619 67.0442 44.8094 67.3321 44.1452C67.642 43.4811 67.9075 42.9388 68.1288 42.5183C68.3504 42.0976 68.494 41.8542 68.5606 41.7879L67.8633 41.6882C67.4871 41.9315 66.845 42.5515 65.9375 43.5477C65.0521 44.5436 64.0448 45.8053 62.916 47.3327C61.7872 48.8378 60.6139 50.5423 59.3965 52.446C58.2011 54.3274 57.1165 56.2753 56.1427 58.2898C55.6556 59.2857 55.2572 60.1601 54.9473 60.9129C54.6373 61.6433 54.3273 62.2519 54.0177 62.739C53.7298 63.2039 53.4088 63.5581 53.0546 63.8015C52.7005 64.0448 52.2468 64.1667 51.6935 64.1667C50.9628 64.1667 50.3873 63.9565 49.9669 63.5357C49.5461 63.1152 49.2254 62.5619 49.0038 61.8757C48.7825 61.1673 48.6386 60.3706 48.5723 59.4852C48.506 58.5998 48.4725 57.692 48.4725 56.7623C48.4725 55.2794 48.4836 53.3425 48.506 50.9517C48.5502 48.5392 48.6607 45.8719 48.8378 42.9498C49.0148 40.0281 49.2696 36.9511 49.6016 33.7194C49.9337 30.4877 50.3984 27.3001 50.9962 24.1569C51.6158 20.9916 52.3794 17.9811 53.2872 15.1257C54.2169 12.2481 55.3346 9.72464 56.6408 7.55536C57.9687 5.36394 59.5183 3.62632 61.2891 2.34248C63.06 1.05861 65.0963 0.416687 67.3984 0.416687C68.5938 0.416687 69.5676 0.59377 70.3204 0.947937C71.095 1.3021 71.7039 1.80015 72.1465 2.44207C72.6114 3.08402 72.9324 3.85873 73.1092 4.76631C73.2866 5.65172 73.375 6.64781 73.375 7.75457C73.375 9.3926 73.1427 11.2077 72.6777 13.1999C72.2128 15.1921 71.5931 17.2617 70.8185 19.4089C70.0657 21.556 69.2023 23.7364 68.2285 25.9499C67.2544 28.1414 66.2585 30.2775 65.2402 32.358C64.2219 34.4167 63.2149 36.3646 62.2188 38.2017C61.2449 40.0392 60.3816 41.655 59.6288 43.0496L60.2929 43.5142ZM63.2481 22.9948C64.554 19.6081 65.4949 16.7526 66.0704 14.4284C66.6679 12.1042 66.9669 10.3887 66.9669 9.28193C66.9669 7.59964 66.7456 6.75848 66.3027 6.75848C65.7273 6.75848 64.875 7.69923 63.7462 9.58076C62.6171 11.4623 61.2891 14.196 59.7617 17.7819C59.3854 18.9994 59.0312 20.2611 58.6992 21.5671C58.3892 22.8731 58.1016 24.1791 57.8359 25.4851C57.5925 26.7689 57.3601 28.0417 57.1386 29.3034C56.9394 30.543 56.7623 31.7273 56.6073 32.8561C56.2311 35.4902 55.9435 38.0691 55.744 40.5925C56.3418 39.1979 56.9949 37.6815 57.7033 36.0436C58.4116 34.4056 59.1086 32.7898 59.7948 31.196C60.4811 29.5802 61.1231 28.0638 61.7206 26.6471C62.3406 25.2084 62.8497 23.9909 63.2481 22.9948ZM103.092 57.0944C102.295 57.8248 101.299 58.6108 100.104 59.4517C98.9303 60.2709 97.6575 61.0344 96.285 61.7428C94.9129 62.429 93.5072 63.0045 92.0685 63.4694C90.6518 63.9344 89.3014 64.1667 88.0177 64.1667C86.8665 64.1667 85.8927 64.0117 85.0956 63.7017C84.321 63.3699 83.69 62.916 83.2033 62.3406C82.7162 61.7649 82.362 61.0676 82.1408 60.2488C81.9413 59.4075 81.8419 58.489 81.8419 57.4928C81.8419 56.0982 81.9968 54.4823 82.3065 52.6452C82.6386 50.7857 83.0372 48.8712 83.5019 46.9009C83.9669 44.9088 84.4539 42.9277 84.9628 40.9577C85.494 38.9877 85.959 37.1727 86.3573 35.5123C86.5123 34.9369 86.8223 34.4498 87.2872 34.0515C87.7519 33.631 88.2721 33.2989 88.8475 33.0553C89.4454 32.7898 90.054 32.6017 90.6739 32.4909C91.3157 32.358 91.8914 32.2917 92.4003 32.2917C93.3302 32.2917 93.9609 32.4688 94.2929 32.8229C94.625 33.155 94.791 33.6086 94.791 34.1844C94.791 34.6711 94.6802 35.3795 94.459 36.3094C94.2377 37.2169 93.9609 38.2573 93.6288 39.4303C93.2967 40.5815 92.9426 41.8321 92.5663 43.1825C92.19 44.5104 91.8359 45.8498 91.5038 47.1998C91.1717 48.5281 90.8952 49.834 90.6739 51.1178C90.4523 52.3795 90.3419 53.5196 90.3419 54.5379C90.3419 55.5338 90.4523 56.3308 90.6739 56.9284C90.8952 57.5038 91.3491 57.7917 92.035 57.7917C92.8321 57.7917 93.7175 57.5149 94.6913 56.9615C95.6654 56.4082 96.6503 55.744 97.6465 54.9694C98.6427 54.1727 99.6165 53.3535 100.568 52.5123C101.52 51.6711 102.361 50.9517 103.092 50.3542V57.0944ZM88.25 22.9616C88.25 22.4525 88.3608 21.877 88.5821 21.2351C88.8034 20.5931 89.1575 19.9955 89.6446 19.4421C90.1537 18.8666 90.8176 18.3906 91.6367 18.0143C92.4779 17.6159 93.5183 17.4167 94.7579 17.4167C95.5325 17.4167 96.2629 17.5052 96.9492 17.6823C97.6354 17.8594 98.233 18.1361 98.7421 18.5124C99.2513 18.8666 99.6496 19.3425 99.9375 19.9401C100.247 20.5378 100.402 21.2461 100.402 22.0651C100.402 22.8177 100.281 23.5482 100.037 24.2565C99.7936 24.9649 99.4062 25.5957 98.875 26.1491C98.3438 26.7025 97.6686 27.1563 96.8497 27.5104C96.0527 27.8425 95.0899 28.0085 93.9609 28.0085C92.0129 28.0085 90.5742 27.5546 89.6446 26.6471C88.715 25.7175 88.25 24.4889 88.25 22.9616ZM114.58 57.9577C114.58 57.6698 114.602 57.2604 114.646 56.7292C114.691 56.1979 114.757 55.5893 114.846 54.9031C114.934 54.2169 115.034 53.4975 115.145 52.7449C115.255 51.97 115.366 51.2065 115.477 50.4539C115.72 48.6831 116.019 46.7794 116.373 44.7428H115.875C115.609 45.0748 115.3 45.5729 114.945 46.2371C114.613 46.9009 114.137 47.875 113.518 49.1588C112.898 50.4426 112.101 52.114 111.127 54.1727C110.175 56.209 108.936 58.7658 107.408 61.8425C106.966 62.75 106.445 63.3699 105.848 63.7017C105.272 64.0117 104.63 64.1667 103.922 64.1667C103.014 64.1667 102.284 63.9786 101.73 63.6023C101.177 63.2039 100.746 62.6837 100.436 62.0417C100.148 61.3776 99.9486 60.6361 99.8378 59.817C99.7494 58.976 99.7052 58.1127 99.7052 57.2273C99.7052 56.3198 99.7604 55.2462 99.8712 54.0066C99.9817 52.7671 100.126 51.4609 100.303 50.0884C100.48 48.7162 100.679 47.3217 100.9 45.905C101.144 44.4662 101.387 43.0938 101.631 41.7879C101.896 40.4817 102.162 39.2866 102.428 38.2017C102.693 37.1171 102.937 36.2317 103.158 35.5455C103.379 34.8372 103.59 34.2728 103.789 33.8523C103.988 33.4315 104.21 33.1108 104.453 32.8892C104.719 32.6459 105.029 32.4909 105.383 32.4246C105.737 32.3359 106.191 32.2917 106.744 32.2917C107.585 32.2917 108.238 32.3248 108.703 32.3914C109.19 32.4356 109.544 32.5685 109.766 32.7898C110.009 32.989 110.153 33.2879 110.197 33.6863C110.241 34.0846 110.264 34.6269 110.264 35.3132C110.264 35.6894 110.241 36.1212 110.197 36.608C110.175 37.095 110.131 37.6152 110.064 38.1686C109.998 38.7219 109.92 39.2977 109.832 39.8952C109.766 40.4707 109.688 41.0351 109.6 41.5884C109.4 42.8946 109.19 44.2449 108.969 45.6392L109.334 46.0379C109.378 45.9713 109.611 45.5508 110.031 44.7759C110.474 44.0013 111.005 43.0717 111.625 41.9871C112.267 40.9025 112.953 39.7734 113.684 38.6004C114.414 37.405 115.111 36.3536 115.775 35.446C116.417 34.5385 117.092 33.7857 117.801 33.1882C118.531 32.5906 119.395 32.2917 120.391 32.2917C121.32 32.2917 122.117 32.5685 122.781 33.1219C123.445 33.6531 123.777 34.4167 123.777 35.4129C123.777 36.2759 123.722 37.095 123.611 37.87C123.501 38.6446 123.357 39.3971 123.18 40.1276C123.025 40.858 122.859 41.5774 122.682 42.2857C122.504 42.9719 122.338 43.6803 122.184 44.4107C122.073 44.9199 122.007 45.2409 121.984 45.3738C121.962 45.5066 121.951 45.595 121.951 45.6392L122.316 46.0379C122.361 45.9713 122.615 45.5619 123.08 44.8093C123.545 44.0344 124.109 43.1048 124.773 42.0202C125.46 40.9356 126.179 39.7955 126.932 38.6004C127.706 37.405 128.426 36.3536 129.09 35.446C129.732 34.5606 130.374 33.8191 131.016 33.2213C131.658 32.6017 132.443 32.2917 133.373 32.2917C134.413 32.2917 135.288 32.5685 135.996 33.1219C136.727 33.6531 137.092 34.4167 137.092 35.4129C137.092 36.9401 137.014 38.3899 136.859 39.7623C136.705 41.1348 136.527 42.4852 136.328 43.8132C136.129 45.1414 135.952 46.4915 135.797 47.864C135.642 49.2143 135.564 50.6531 135.564 52.1803C135.564 53.3757 135.719 54.3498 136.029 55.1023C136.339 55.8548 136.716 56.2311 137.158 56.2311C137.623 56.2311 138.11 56.1316 138.619 55.9324C139.128 55.733 139.648 55.4785 140.18 55.1686C140.711 54.8586 141.231 54.5045 141.74 54.1061C142.249 53.6856 142.736 53.2538 143.201 52.8113C144.286 51.793 145.359 50.6421 146.422 49.358L146.986 57.1941C146.012 57.9688 145.038 58.7768 144.064 59.6178C143.113 60.4369 142.094 61.1894 141.01 61.8757C139.947 62.5398 138.774 63.0931 137.49 63.5357C136.206 63.9565 134.757 64.1667 133.141 64.1667C132.344 64.1667 131.669 63.9123 131.115 63.4031C130.584 62.8718 130.152 62.1414 129.82 61.2115C129.488 60.2819 129.245 59.1863 129.09 57.9246C128.957 56.6629 128.891 55.2904 128.891 53.8074C128.891 52.4129 128.935 50.9407 129.023 49.3914C129.134 47.8198 129.278 46.2371 129.455 44.6433H128.957L122.217 61.8093C121.641 62.739 120.999 63.3699 120.291 63.7017C119.583 64.0117 118.764 64.1667 117.834 64.1667C117.126 64.1667 116.561 63.9786 116.141 63.6023C115.72 63.2039 115.388 62.7058 115.145 62.108C114.923 61.4883 114.768 60.8132 114.68 60.0827C114.613 59.3523 114.58 58.644 114.58 57.9577ZM155.088 37.4382C156.327 35.8886 157.456 34.649 158.475 33.7194C159.515 32.7677 160.544 32.2917 161.562 32.2917C162.868 32.2917 164.031 32.5796 165.049 33.155C166.067 33.7305 166.93 34.494 167.639 35.446C168.347 36.3978 168.889 37.4934 169.266 38.733C169.642 39.9726 169.83 41.2677 169.83 42.6178C169.83 43.7469 169.786 44.8204 169.697 45.8384C169.609 46.8346 169.443 47.8198 169.199 48.7936C168.978 49.7456 168.657 50.6973 168.236 51.649C167.838 52.601 167.307 53.5859 166.643 54.6042C167.439 54.1392 168.247 53.6856 169.066 53.2428C169.885 52.8002 170.705 52.3132 171.523 51.7819C172.365 51.2507 173.206 50.6642 174.047 50.0221C174.888 49.358 175.751 48.5834 176.637 47.6979L179.193 53.1765C177.976 54.2832 176.759 55.2462 175.541 56.0651C174.346 56.8842 173.106 57.6035 171.822 58.2232C170.561 58.821 169.232 59.3412 167.838 59.7838C166.466 60.2267 165.004 60.625 163.455 60.9792C163.079 61.3555 162.559 61.7317 161.895 62.108C161.253 62.4842 160.611 62.8274 159.969 63.1373C159.238 63.4915 158.452 63.8346 157.611 64.1667H156.781C154.9 64.1667 153.029 63.9123 151.17 63.4031C149.333 62.8718 147.662 62.2851 146.156 61.6433C144.408 60.9129 142.736 60.0717 141.143 59.1199C141.209 57.3267 141.342 55.3015 141.541 53.0436C141.718 51.0957 141.961 48.8046 142.271 46.1705C142.581 43.5142 143.002 40.5594 143.533 37.3053C143.887 35.1361 144.33 32.7232 144.861 30.067C145.393 27.3886 146.012 24.6882 146.721 21.9655C147.451 19.2207 148.259 16.5645 149.145 13.9968C150.052 11.4069 151.048 9.10485 152.133 7.09052C153.24 5.07619 154.435 3.46031 155.719 2.24286C157.025 1.02541 158.43 0.416687 159.936 0.416687C161.618 0.416687 162.968 0.704446 163.986 1.27997C165.004 1.85548 165.79 2.64131 166.344 3.63739C166.897 4.61135 167.262 5.76239 167.439 7.09052C167.616 8.41864 167.705 9.83531 167.705 11.3405C167.705 13.4434 167.307 15.6126 166.51 17.8483C165.735 20.084 164.717 22.3197 163.455 24.5554C162.193 26.7689 160.777 28.9382 159.205 31.0632C157.656 33.1882 156.106 35.1913 154.557 37.0729L155.088 37.4382ZM158.076 39.8621C157.301 39.8621 156.527 40.0281 155.752 40.3602C154.977 40.6699 154.258 41.168 153.594 41.8542C152.93 42.5183 152.343 43.3816 151.834 44.4441C151.325 45.4843 150.949 46.7462 150.705 48.2292C150.506 49.4246 150.34 50.5313 150.207 51.5496C150.074 52.5455 149.963 53.4309 149.875 54.2058C149.787 55.0912 149.709 55.9211 149.643 56.696C150.373 56.9173 151.104 57.1055 151.834 57.2604C152.476 57.3933 153.151 57.5149 153.859 57.6257C154.568 57.7364 155.243 57.7917 155.885 57.7917C156.637 57.7917 157.324 57.5704 157.943 57.1276C158.563 56.685 159.116 56.0982 159.604 55.3678C160.091 54.6152 160.511 53.763 160.865 52.8113C161.219 51.8593 161.507 50.8744 161.729 49.8561C161.95 48.8157 162.116 47.7977 162.227 46.8015C162.337 45.7832 162.393 44.8535 162.393 44.0123C162.393 43.459 162.326 42.9388 162.193 42.4517C162.083 41.9426 161.861 41.5 161.529 41.1238C161.219 40.7475 160.777 40.4486 160.201 40.2273C159.648 39.9836 158.939 39.8621 158.076 39.8621ZM161.33 9.44794C161.33 9.3594 161.308 9.17123 161.264 8.88348C161.241 8.59573 161.164 8.2969 161.031 7.98701C160.92 7.6771 160.754 7.4004 160.533 7.15693C160.312 6.91344 160.013 6.79169 159.637 6.79169C159.194 6.79169 158.729 7.11265 158.242 7.75457C157.777 8.37436 157.312 9.2266 156.848 10.3112C156.383 11.3737 155.929 12.6133 155.486 14.03C155.044 15.4245 154.612 16.8965 154.191 18.446C153.771 19.9733 153.372 21.5339 152.996 23.1276C152.642 24.7214 152.31 26.2376 152 27.6765C151.712 29.0931 151.458 30.399 151.236 31.5944C151.015 32.7677 150.838 33.7194 150.705 34.4498C151.303 33.2989 151.967 32.1036 152.697 30.864C153.45 29.6244 154.202 28.3406 154.955 27.0124C155.708 25.6621 156.438 24.2897 157.146 22.8952C157.877 21.4785 158.53 20.0397 159.105 18.5788C159.703 17.0957 160.19 15.6016 160.566 14.0964C160.965 12.569 161.219 11.0196 161.33 9.44794ZM183.277 64.1667C182.082 64.1667 180.964 63.6465 179.924 62.6061C178.906 61.5436 178.009 60.1269 177.234 58.3561C176.482 56.5853 175.884 54.5379 175.441 52.2134C175.021 49.8671 174.811 47.4101 174.811 44.8425C174.811 42.8725 174.955 40.7364 175.242 38.4344C175.53 36.1102 175.95 33.7194 176.504 31.2623C177.057 28.8053 177.71 26.3373 178.463 23.8581C179.238 21.3789 180.101 18.9994 181.053 16.7194C182.027 14.4395 183.078 12.3145 184.207 10.3444C185.336 8.35223 186.52 6.62568 187.76 5.16473C188.999 3.68165 190.294 2.51956 191.645 1.6784C192.995 0.837261 194.367 0.416687 195.762 0.416687C196.713 0.416687 197.499 0.638041 198.119 1.08075C198.739 1.50132 199.226 2.06577 199.58 2.77411C199.934 3.48244 200.178 4.29039 200.311 5.19794C200.466 6.08335 200.543 6.9909 200.543 7.9206C200.543 10.0013 200.3 12.1263 199.812 14.2956C199.348 16.4427 198.706 18.612 197.887 20.8034C197.09 22.9727 196.16 25.153 195.098 27.3444C194.035 29.5357 192.928 31.7162 191.777 33.8854C190.626 36.0325 189.464 38.1575 188.291 40.2604C187.14 42.3412 186.055 44.3776 185.037 46.3699C184.926 46.5912 184.805 46.8788 184.672 47.233C184.561 47.5872 184.45 47.9748 184.34 48.3952C184.229 48.7936 184.118 49.2254 184.008 49.6901C183.897 50.155 183.809 50.6086 183.742 51.0515V51.5164C183.742 52.0919 183.798 52.6563 183.908 53.2096C184.041 53.7409 184.196 54.2279 184.373 54.6705C184.55 55.0912 184.738 55.4344 184.938 55.6998C185.137 55.9435 185.325 56.0651 185.502 56.0651C185.923 56.0651 186.398 55.9767 186.93 55.7996C187.483 55.6225 188.059 55.3899 188.656 55.1023C189.276 54.7923 189.907 54.4492 190.549 54.0729C191.191 53.6746 191.811 53.2759 192.408 52.8776C193.803 51.9479 195.264 50.8744 196.791 49.6569L199.514 56.6295C197.544 58.0461 195.596 59.3081 193.67 60.4148C192.829 60.8795 191.955 61.3444 191.047 61.8093C190.162 62.2519 189.265 62.6503 188.357 63.0045C187.45 63.3586 186.564 63.6465 185.701 63.8678C184.838 64.067 184.03 64.1667 183.277 64.1667ZM183.311 37.6042C184.307 35.8334 185.358 33.8412 186.465 31.6276C187.594 29.4142 188.656 27.1341 189.652 24.7878C190.648 22.4414 191.512 20.1061 192.242 17.7819C192.973 15.4356 193.437 13.2552 193.637 11.2409C193.637 10.599 193.615 10.0567 193.57 9.61394C193.548 9.14911 193.449 8.91669 193.271 8.91669C192.629 8.91669 191.932 9.33727 191.18 10.1784C190.449 10.9974 189.708 12.1153 188.955 13.5319C188.225 14.9486 187.516 16.5977 186.83 18.4792C186.166 20.3607 185.568 22.3639 185.037 24.4889C184.506 26.6139 184.085 28.8053 183.775 31.0632C183.466 33.2989 183.311 35.4792 183.311 37.6042ZM206.221 64.1667C204.14 64.1667 202.314 63.7904 200.742 63.0379C199.193 62.2851 197.898 61.2781 196.857 60.0164C195.817 58.7324 195.031 57.2604 194.5 55.6004C193.991 53.918 193.736 52.1582 193.736 50.321C193.736 49.0815 193.858 47.7753 194.102 46.4031C194.345 45.0085 194.71 43.6471 195.197 42.3191C195.706 40.9909 196.337 39.7292 197.09 38.5338C197.842 37.3163 198.717 36.2538 199.713 35.3463C200.731 34.4167 201.86 33.6863 203.1 33.155C204.361 32.6017 205.756 32.3248 207.283 32.3248C208.523 32.3248 209.674 32.524 210.736 32.9227C211.799 33.321 212.717 33.8854 213.492 34.6159C214.289 35.3242 214.909 36.1875 215.352 37.2058C215.794 38.2241 216.016 39.364 216.016 40.6257C216.016 41.9981 215.673 43.3706 214.986 44.7428C214.322 46.1152 213.393 47.4101 212.197 48.6276C211.002 49.845 209.574 50.9296 207.914 51.8816C206.276 52.8334 204.494 53.5748 202.568 54.1061C202.9 54.7039 203.221 55.2017 203.531 55.6004C203.863 55.9988 204.195 56.3087 204.527 56.53C204.859 56.7513 205.202 56.9063 205.557 56.9949C205.933 57.0834 206.331 57.1276 206.752 57.1276C208.08 57.1276 209.475 56.8621 210.936 56.3308C212.419 55.7996 213.857 55.1354 215.252 54.3384C216.646 53.5417 217.963 52.6784 219.203 51.7488C220.443 50.7968 221.494 49.9003 222.357 49.0593L226.641 53.5085C224.693 55.5228 222.623 57.3046 220.432 58.8542C219.48 59.5183 218.45 60.1711 217.344 60.8132C216.259 61.4552 215.108 62.0306 213.891 62.5398C212.695 63.0268 211.445 63.4252 210.139 63.7352C208.855 64.0228 207.549 64.1667 206.221 64.1667ZM201.805 48.5613C202.602 48.5613 203.465 48.3621 204.395 47.9634C205.346 47.543 206.221 47.0117 207.018 46.3699C207.836 45.7279 208.523 45.0306 209.076 44.2781C209.629 43.5253 209.906 42.7949 209.906 42.0865C209.906 41.0906 209.718 40.2715 209.342 39.6295C208.988 38.9877 208.545 38.6667 208.014 38.6667C207.062 38.6667 206.243 38.8438 205.557 39.1979C204.893 39.5521 204.328 40.0171 203.863 40.5925C203.42 41.1459 203.055 41.7879 202.768 42.5183C202.502 43.2267 202.292 43.946 202.137 44.6765C202.004 45.4069 201.915 46.1152 201.871 46.8015C201.827 47.4877 201.805 48.0742 201.805 48.5613Z" fill="white"/>
</svg>
